# xmcd CD database file
#
# Track frame offsets:
#	150
#	12383
#	25081
#	39060
#	51362
#	62259
#	72243
#	83284
#	94797
#	104797
#	117514
#	128843
#	140593
#	151634
#	161829
#	173616
#	184250
#	195296
#	204615
#	217048
#
# Disc length: 3085 seconds
#
# Revision: 2
# Processed by: cddbd v1.5.2PL0 Copyright (c) Steve Scherf et al.
# Submitted via: CDex 1.51
#
DISCID=0b0c0b14
DTITLE=Various Artist - Classic Country - Honky Tonk Heroes
DYEAR=2004
DGENRE=Country
TTITLE0=Hank Williams - Your Cheatin' Heart
TTITLE1=Ernest Tubb - Walking The Floor Over You
TTITLE2=Lefty Frizzell - Always Late (With Your Kisses)
TTITLE3=Hank Thompson and His Brazos Valley Boys - The Wild Side Of Life
TTITLE4=Webb Pierce - There Stands The Glass
TTITLE5=George Jones - Why Baby Why
TTITLE6=Marty Robbins - Singing The Blues
TTITLE7=Ray Price - Crazy Arms
TTITLE8=Johnny Horton - Honky Tonk Man
TTITLE9=Johnny Cash - Folsom Prison Blues
TTITLE10=Stonewall Jackson - Life To Go
TTITLE11=Don Gibson - I Can't Stop Loving You
TTITLE12=Charlie Walker - Pick Me Up On Your Way Down
TTITLE13=Billy Walker - Charlie's Shoes
TTITLE14=Porter Wagoner - Misery Loves Company
TTITLE15=Jim Ed Brown - Pop A Top
TTITLE16=Buck Owens - Together Again
TTITLE17=Willie Nelson - If You've Got The Money, I've Got The Time
TTITLE18=Freddy Fender - Wasted Days And Wasted Nights
TTITLE19=Moe Bandy - Hank Williams, You Wrote My Life
EXTD=YEAR: 2004
EXTT0=
EXTT1=
EXTT2=
EXTT3=
EXTT4=
EXTT5=
EXTT6=
EXTT7=
EXTT8=
EXTT9=
EXTT10=
EXTT11=
EXTT12=
EXTT13=
EXTT14=
EXTT15=
EXTT16=
EXTT17=
EXTT18=
EXTT19=
PLAYORDER=
